<?xml version="1.0" encoding="UTF-8"?>
<svg version="1.1" xmlns="http://www.w3.org/2000/svg" width="512" height="512">
<path d="M0 0 C168.96 0 337.92 0 512 0 C512 168.96 512 337.92 512 512 C343.04 512 174.08 512 0 512 C0 343.04 0 174.08 0 0 Z " fill="#FEFEFE" transform="translate(0,0)"/>
<path d="M0 0 C0.85086182 0.0707373 1.70172363 0.14147461 2.57836914 0.21435547 C16.72838582 1.22386703 30.88707717 1.15284559 45.06469727 1.13037109 C48.7029233 1.1246797 52.34107604 1.12804689 55.97929955 1.13382339 C70.67541385 1.15349283 85.33797434 1.12538321 100 0 C100.08676797 8.5385505 99.8263487 17.02091305 99.37890625 25.546875 C99.2805816 27.51669876 99.18226408 29.4865229 99.08428097 31.45636368 C98.84675345 36.21285634 98.60283934 40.96901888 98.35717773 45.72509766 C96.23247484 87.09927594 95.85321779 128.42576648 95.89646151 169.84988366 C95.90377683 177.05176168 95.90512662 184.25363782 95.90625793 191.45551902 C95.9084231 204.28903425 95.91501274 217.12254297 95.92456055 229.95605469 C95.93380143 242.39029916 95.94084918 254.82454183 95.94506836 267.25878906 C95.94546244 268.41691492 95.94546244 268.41691492 95.94586449 269.59843725 C95.94716994 273.47343853 95.94843355 277.34843982 95.94967639 281.22344112 C95.9599697 313.14896552 95.97759359 345.07448173 96 377 C102.62592803 376.87397781 109.25179251 376.7449252 115.87762451 376.61395264 C118.12264734 376.56991058 120.36768295 376.52651414 122.61273193 376.48382568 C160.95834303 375.75329027 198.8403625 372.84641425 237 369 C236.89403 369.9412825 236.89403 369.9412825 236.78591919 370.90158081 C236.20382976 376.33234659 235.85061705 381.67272714 235.8671875 387.1328125 C235.86623077 387.85435516 235.86527405 388.57589783 235.86428833 389.31930542 C235.86361513 390.82664071 235.86540851 392.33397906 235.86962891 393.84130859 C235.87500552 396.12734558 235.8696463 398.41318758 235.86328125 400.69921875 C235.86394188 402.17708376 235.86522272 403.65494865 235.8671875 405.1328125 C235.86887939 407.11112061 235.86887939 407.11112061 235.87060547 409.12939453 C236.00340693 413.10191235 236.50699455 417.05595643 237 421 C158.79 421 80.58 421 0 421 C1.15902004 386.22939866 1.15902004 386.22939866 2.125 369.95678711 C4.06163856 336.94693416 4.16292264 303.85566093 4.16725707 270.80036974 C4.16798299 267.66504151 4.17014528 264.52971731 4.17275429 261.39439011 C4.1819321 250.3226571 4.18609956 239.2509359 4.18530273 228.17919922 C4.18477233 219.18959761 4.19178678 210.20003971 4.20581055 201.21044922 C4.30000797 139.4453229 3.95430876 77.80603244 0.3671875 16.125 C0.06458036 10.73664056 -0.08430869 5.39575623 0 0 Z " fill="#000000" transform="translate(138,47)"/>
</svg>
