<svg version="1.1" id="Layer_1" xmlns="http://www.w3.org/2000/svg" xmlns:xlink="http://www.w3.org/1999/xlink" x="0px" y="0px"
	 width="100%" viewBox="0 0 512 512" enable-background="new 0 0 512 512" xml:space="preserve">
<path fill="#000000" opacity="1.000000" stroke="none" 
	d="
M304.190308,236.075409 
	C300.699615,260.579773 300.733612,284.304382 311.516632,306.870544 
	C323.657867,332.279205 344.062927,345.885559 371.999054,346.304871 
	C391.136871,346.592072 408.568420,339.887329 423.323517,327.186676 
	C425.006226,325.738251 426.323090,323.346863 429.221252,325.061920 
	C432.531708,327.020874 430.483032,329.403534 429.772095,331.594727 
	C428.024384,336.981384 426.073273,342.365631 425.528503,347.989960 
	C425.160950,351.784729 423.313477,353.541718 420.127014,354.872009 
	C408.355255,359.786713 396.078430,362.684265 383.440704,363.976105 
	C362.401001,366.126831 341.473938,365.504944 321.156342,359.105133 
	C282.154968,346.820190 258.426056,320.489166 253.187302,279.853180 
	C248.981384,247.228592 254.394363,216.014526 275.599609,189.285355 
	C289.935333,171.215225 309.066650,160.725388 331.156952,155.114975 
	C362.594849,147.130478 393.455933,148.754822 423.741364,160.482574 
	C424.051788,160.602768 424.374115,160.693054 424.681580,160.819855 
	C433.279938,164.366394 433.306305,164.375244 430.500732,173.264954 
	C428.540253,179.476898 427.689819,185.906891 426.558777,192.286713 
	C426.294250,193.778580 426.768707,195.833923 424.372772,196.223953 
	C422.341400,196.554626 420.853027,195.760208 419.615875,194.181137 
	C416.420868,190.103271 412.836395,186.387024 408.841705,183.089172 
	C386.165955,164.369232 352.723816,165.290421 330.522858,185.246719 
	C315.483795,198.765259 307.871765,216.169205 304.190308,236.075409 
z"/>
<path fill="#000000" opacity="1.000000" stroke="none" 
	d="
M130.606018,337.193237 
	C136.246078,339.796265 141.893448,338.504181 147.451004,338.304474 
	C163.741974,337.719086 180.025711,336.939148 196.215744,334.869019 
	C196.677048,334.809998 197.176270,335.047638 197.752213,335.166443 
	C199.018478,337.737488 198.263046,340.428070 197.912735,342.971832 
	C197.336258,347.158081 197.415375,351.287323 198.146973,355.396545 
	C198.941238,359.857849 197.243454,361.413086 192.776215,361.107239 
	C174.647461,359.866058 156.484436,360.380280 138.335983,360.424835 
	C120.854271,360.467743 103.362556,359.846710 85.892853,360.832031 
	C82.179382,361.041473 81.712463,359.159088 81.904877,356.258850 
	C84.463318,317.694305 84.977318,279.064911 84.439400,240.450714 
	C84.061653,213.334366 84.321159,186.169083 81.915794,159.106720 
	C81.623245,155.815247 82.230240,154.116882 86.146233,154.536087 
	C100.087807,156.028488 114.058884,156.073349 128.005463,154.525574 
	C131.335556,154.155991 131.910950,155.551025 131.738174,158.550659 
	C128.768005,210.118042 129.219650,261.739716 129.480728,313.355499 
	C129.520279,321.172882 130.103119,328.987457 130.606018,337.193237 
z"/>
</svg>